<svg width="227" height="384" viewBox="0 0 227 384" fill="none" xmlns="http://www.w3.org/2000/svg">
<path d="M1 247L113 293L226 247V293L113 339L1 293V247Z" fill="#1091D5"/>
<path d="M1 293L113 339L226 293V339L113 384L1 339V293Z" fill="#11ADFF" fill-opacity="0.54"/>
<path d="M113 198L227 246.45L113 293L0 246.45L113 198Z" fill="#11ADFF" fill-opacity="0.31"/>
<path d="M113.097 208L205 246.76L113.097 284L22 246.76L113.097 208Z" fill="#1091D5"/>
<path d="M113.5 236.4L72.3638 199.65H154.636L113.5 236.4Z" fill="url(#paint0_linear_7_198)"/>
<path d="M184.222 135.449C184.222 135.449 192.971 177.997 113.819 177.997C34.6664 178.414 43.8314 135.449 43.8314 135.449C91.7393 130.027 138.814 129.609 184.222 135.449ZM200.053 76.2163C198.803 64.5365 155.478 40.76 112.569 32C70.4932 39.5084 26.3347 64.5365 25.0848 76.2163C23.835 86.2274 36.7494 100.827 40.9152 105.416L41.7485 128.358C90.0729 122.518 137.148 122.518 182.973 128.358L184.222 105.416C187.972 101.244 201.303 86.2276 200.053 76.2163ZM141.73 80.8048L129.649 91.6503L132.149 107.084C132.149 107.918 131.732 109.17 130.899 109.587C130.066 110.004 128.816 110.421 127.983 109.587L113.402 102.079L98.4048 109.17C97.5715 109.587 96.3217 109.587 95.4886 108.753C94.6555 108.336 94.2388 107.084 94.2388 106.25L97.155 90.8159L85.4904 79.5534C84.6573 78.719 84.6573 77.8848 84.6573 77.0505C85.0739 76.2162 85.907 75.382 86.7402 75.382L102.987 73.2963L110.486 59.1138C110.902 58.2794 111.736 57.8624 112.985 57.8624C114.235 57.8624 115.068 58.2794 115.485 59.5308L122.567 73.7134L138.814 76.2163C140.064 76.2163 140.897 77.0507 140.897 77.8849C142.98 79.1363 142.563 79.9705 141.73 80.8049V80.8048Z" fill="url(#paint1_linear_7_198)"/>
<defs>
<linearGradient id="paint0_linear_7_198" x1="113.5" y1="236.4" x2="113.5" y2="187.4" gradientUnits="userSpaceOnUse">
<stop stop-color="#00C2FF"/>
<stop offset="0.979167" stop-color="#F8FDFF" stop-opacity="0"/>
</linearGradient>
<linearGradient id="paint1_linear_7_198" x1="112.568" y1="32" x2="112.568" y2="178" gradientUnits="userSpaceOnUse">
<stop stop-color="#1296DB"/>
<stop offset="1" stop-color="#1296DB" stop-opacity="0"/>
</linearGradient>
</defs>
</svg>
