<svg width="228" height="385" viewBox="0 0 228 385" fill="none" xmlns="http://www.w3.org/2000/svg">
<path d="M1 248L113 294L226 248V294L113 340L1 294V248Z" fill="#E8D316" fill-opacity="0.54"/>
<path d="M1 294L113 340L226 294V340L113 385L1 340V294Z" fill="#A2A5BD" fill-opacity="0.81"/>
<path d="M113 199L227 247.45L113 294L0 247.45L113 199Z" fill="#FFF511" fill-opacity="0.31"/>
<path d="M113.097 209L205 247.76L113.097 285L22 247.76L113.097 209Z" fill="#094092" fill-opacity="0.49"/>
<path d="M113.5 237.4L72.3638 200.65H154.636L113.5 237.4Z" fill="url(#paint0_linear_7_220)"/>
<path d="M185.222 136.449C185.222 136.449 193.971 178.997 114.819 178.997C35.6664 179.414 44.8314 136.449 44.8314 136.449C92.7393 131.027 139.814 130.609 185.222 136.449ZM201.053 77.2163C199.803 65.5365 156.478 41.76 113.569 33C71.4932 40.5084 27.3347 65.5365 26.0848 77.2163C24.835 87.2274 37.7494 101.827 41.9152 106.416L42.7485 129.358C91.0729 123.518 138.148 123.518 183.973 129.358L185.222 106.416C188.972 102.244 202.303 87.2276 201.053 77.2163ZM142.73 81.8048L130.649 92.6503L133.149 108.084C133.149 108.918 132.732 110.17 131.899 110.587C131.066 111.004 129.816 111.421 128.983 110.587L114.402 103.079L99.4048 110.17C98.5715 110.587 97.3217 110.587 96.4886 109.753C95.6555 109.336 95.2388 108.084 95.2388 107.25L98.155 91.8159L86.4904 80.5534C85.6573 79.719 85.6573 78.8848 85.6573 78.0505C86.0739 77.2162 86.907 76.382 87.7402 76.382L103.987 74.2963L111.486 60.1138C111.902 59.2794 112.736 58.8624 113.985 58.8624C115.235 58.8624 116.068 59.2794 116.485 60.5308L123.567 74.7134L139.814 77.2163C141.064 77.2163 141.897 78.0507 141.897 78.8849C143.98 80.1363 143.563 80.9705 142.73 81.8049V81.8048Z" fill="url(#paint1_linear_7_220)"/>
<path d="M1 0H228V339L115 385L1 339V0Z" fill="url(#paint2_linear_7_220)"/>
<defs>
<linearGradient id="paint0_linear_7_220" x1="113.5" y1="237.4" x2="113.5" y2="188.4" gradientUnits="userSpaceOnUse">
<stop stop-color="#F2DC12"/>
<stop offset="0.979167" stop-color="#F8FDFF" stop-opacity="0"/>
</linearGradient>
<linearGradient id="paint1_linear_7_220" x1="113.568" y1="33" x2="113.568" y2="179" gradientUnits="userSpaceOnUse">
<stop stop-color="#F2DC12"/>
<stop offset="1" stop-color="#F2DC12" stop-opacity="0"/>
</linearGradient>
<linearGradient id="paint2_linear_7_220" x1="114.5" y1="0" x2="114.5" y2="385" gradientUnits="userSpaceOnUse">
<stop stop-color="white" stop-opacity="0"/>
<stop offset="1" stop-color="#FFDF35" stop-opacity="0.65"/>
</linearGradient>
</defs>
</svg>
