<svg width="227" height="384" viewBox="0 0 227 384" fill="none" xmlns="http://www.w3.org/2000/svg">
<path d="M1 247L113 293L226 247V293L113 339L1 293V247Z" fill="#1091D5"/>
<path d="M1 293L113 339L226 293V339L113 384L1 339V293Z" fill="#11ADFF" fill-opacity="0.54"/>
<path d="M113 198L227 246.45L113 293L0 246.45L113 198Z" fill="#11ADFF" fill-opacity="0.31"/>
<path d="M113.097 208L205 246.76L113.097 284L22 246.76L113.097 208Z" fill="#1091D5"/>
<path d="M113.5 236.4L72.3638 199.65H154.636L113.5 236.4Z" fill="url(#paint0_linear_6_123)"/>
<path d="M77.3695 52.9167C85.3159 52.9167 91.7724 47.3462 93.2624 39.75H123.062C125.048 39.75 126.538 38.2308 126.538 36.2051C126.538 34.1795 125.048 33.1667 123.062 33.1667H92.7658C91.2758 25.5705 84.8193 20 76.8728 20C67.933 20 60.4832 27.5962 60.4832 36.7115C60.4832 45.8269 68.4297 52.9167 77.3695 52.9167ZM77.3695 27.0897C82.336 27.0897 86.8059 31.141 86.8059 36.7115C86.8059 42.282 82.8327 46.3333 77.3695 46.3333C71.9063 46.3333 67.933 41.7756 67.933 36.7115C67.933 31.6474 71.9063 27.0897 77.3695 27.0897ZM144.914 52.4103C146.404 52.9167 147.398 52.9167 148.888 52.9167C150.378 52.9167 152.364 52.4103 153.854 51.9038L169.251 78.2372C169.747 79.25 171.237 79.7564 172.23 79.7564C172.727 79.7564 173.224 79.7564 174.217 79.25C175.707 78.2372 176.204 76.2115 175.21 74.1859L159.814 47.8526C162.297 45.8269 163.787 42.7885 164.284 39.75C165.774 36.2051 165.277 32.1538 162.794 28.1026C160.311 24.0513 157.331 21.5192 152.861 20.5064C148.888 19.4936 144.418 20 140.445 22.0256C136.471 24.0513 133.988 27.5962 132.995 32.1538C132.001 36.2051 132.498 40.7628 134.485 44.8141C136.471 48.8654 140.941 51.3974 144.914 52.4103ZM139.948 34.1795C140.445 31.6474 141.935 29.6218 144.418 28.609C145.908 27.5962 147.398 27.0897 148.888 27.0897C149.881 27.0897 150.378 27.0897 151.371 27.5962C153.854 28.1026 155.841 29.6218 156.834 32.1538C158.324 34.1795 158.324 36.7115 157.827 39.2436C157.331 41.7756 155.841 43.8013 153.358 44.8141C151.371 46.3333 148.888 46.3333 146.404 45.8269C143.921 45.3205 141.935 43.8013 140.941 41.2692C139.948 38.7372 139.451 36.7115 139.948 34.1795ZM193.09 84.8205C185.64 80.2628 175.707 82.7949 170.741 90.8974C168.754 94.9487 167.761 99 169.251 103.558C170.244 106.596 171.734 109.128 173.72 111.66L158.324 137.994C157.331 139.513 157.828 142.045 159.317 143.058C159.814 143.564 160.311 143.564 161.304 143.564C162.297 143.564 163.787 143.058 164.284 142.045L179.68 115.712C181.17 116.218 183.157 116.724 184.647 116.724C190.11 116.724 195.573 113.686 198.553 108.622C203.52 99.5064 200.54 89.3782 193.09 84.8205ZM192.593 104.064C190.11 108.622 184.15 110.141 180.177 107.609C175.707 105.077 174.217 99 176.7 94.9487C179.184 90.391 185.143 88.8718 189.117 91.4038C194.083 93.9359 195.573 99.5064 192.593 104.064ZM148.888 145.083C140.941 145.083 134.485 150.654 132.995 158.25H103.195C101.209 158.25 99.7189 159.769 99.7189 161.795C99.7189 163.82 101.209 164.833 103.195 164.833H133.491C134.981 172.429 141.438 178 149.384 178C158.324 178 165.774 170.404 165.774 161.288C165.774 152.173 157.828 145.083 148.888 145.083ZM148.888 170.91C143.921 170.91 139.451 166.859 139.451 161.288C139.451 156.224 143.425 151.667 148.888 151.667C154.351 151.667 158.324 155.718 158.324 161.288C158.324 166.353 154.351 170.91 148.888 170.91ZM72.4029 145.59L57.0066 119.256C56.0133 117.737 54.0267 117.231 52.0401 118.244C50.5501 119.256 50.0535 121.282 51.0468 123.308L66.4431 149.641C60.9799 154.705 59.4899 163.314 63.4631 169.897C66.4431 174.962 71.9063 178 77.3695 178C80.3494 178 82.8327 177.494 85.3159 175.974C92.7658 171.417 95.7457 161.288 91.2758 153.186C87.3026 146.096 79.3561 143.564 72.4029 145.59ZM81.8394 169.391C77.3695 171.923 71.9063 170.404 69.423 165.846C66.9397 161.288 68.4297 155.718 72.8996 153.186C77.3695 150.654 82.8327 152.173 85.3159 156.731C87.7992 161.288 86.3092 166.859 81.8394 169.391ZM55.5167 107.103C57.5033 103.558 58.4966 99 57.0066 94.4423C56.0133 91.4038 54.5234 88.8718 52.5367 86.3397L67.933 60.0064C68.9263 58.4872 68.4297 55.9551 66.4431 54.9423C64.9531 53.9295 62.4698 54.4359 61.4765 56.4615L46.0802 82.7949C43.1003 81.782 40.1204 81.782 37.1404 82.2885C33.1672 83.3013 29.6906 86.3397 27.2074 89.8846C25.2207 93.9359 24.2274 97.9872 25.7174 102.545C26.7107 106.596 29.6906 110.141 33.1672 112.673C35.6505 114.192 38.6304 114.699 41.1137 114.699C42.6036 114.699 44.0936 114.699 45.0869 114.192C49.5568 113.686 53.0334 111.154 55.5167 107.103ZM49.5568 103.558C48.5635 105.583 46.0802 107.103 44.0936 108.115C41.6103 108.622 39.1271 108.622 37.1404 107.103C32.1739 104.064 30.6839 98.4936 33.6639 93.9359C34.6572 91.9103 37.1404 90.391 39.1271 89.3782C40.1204 89.3782 40.617 88.8718 41.6103 88.8718C43.1003 88.8718 44.5903 89.3782 46.0802 90.391C48.0668 91.4038 49.5568 93.9359 50.5501 95.9615C51.0468 99 50.5501 101.532 49.5568 103.558ZM113.625 56.9679C113.129 56.9679 113.129 56.9679 113.625 56.9679C90.7791 56.9679 72.4029 75.7051 72.4029 99C72.4029 122.295 90.7791 141.032 113.625 141.032C136.471 141.032 154.848 122.295 154.848 99C154.848 76.2115 136.471 57.4744 113.625 56.9679ZM141.438 119.256C138.955 117.737 135.478 116.218 132.498 115.205C133.491 110.647 133.988 106.09 133.988 102.545H147.398C146.901 108.622 144.914 114.192 141.438 119.256ZM79.3561 102.545H92.7658C92.7658 106.09 93.2624 110.141 94.2557 115.205C90.7791 116.218 87.7992 117.231 85.3159 119.256C82.336 114.192 79.8527 108.622 79.3561 102.545ZM85.3159 79.25C87.7992 80.7692 91.2758 82.2885 94.7524 83.3013C93.7591 87.859 93.2624 92.4167 93.2624 95.4551H79.8527C79.8527 89.8846 81.8394 84.3141 85.3159 79.25ZM110.149 78.7436C108.162 78.7436 105.679 78.2372 103.195 78.2372C104.685 74.1859 106.672 70.1346 110.149 67.0961V78.7436ZM110.149 85.8333V95.9615H100.216C100.216 92.9231 100.712 89.3782 101.706 85.3269C104.189 85.3269 107.169 85.3269 110.149 85.8333ZM100.216 102.545H110.149V112.673C107.665 112.673 104.685 113.179 101.706 113.686C100.712 109.635 100.216 105.583 100.216 102.545ZM110.149 120.269V131.41C107.169 128.878 105.182 124.827 103.692 120.776C105.679 120.269 107.665 120.269 110.149 120.269ZM117.102 120.269C119.088 120.269 121.572 120.776 123.558 120.776C122.068 124.827 120.082 128.878 117.102 131.41V120.269ZM117.102 113.179V102.545H127.035C127.035 105.583 126.538 109.635 125.545 113.686C122.068 113.686 119.088 113.179 117.102 113.179ZM127.035 95.4551H117.102V85.3269C119.585 85.3269 122.565 84.8205 125.545 84.3141C126.538 88.8718 126.538 92.9231 127.035 95.4551ZM117.102 78.2372V66.5897C120.082 69.1218 122.565 73.1731 124.055 77.2244C121.572 78.2372 119.088 78.2372 117.102 78.2372ZM126.042 66.5897C130.015 68.109 133.988 70.641 137.465 73.6795C135.975 74.6923 133.491 75.7051 131.008 76.2115C129.518 73.1731 128.028 69.6282 126.042 66.5897ZM96.2423 76.7179C93.7591 76.2115 91.2758 75.1987 89.7858 74.1859C92.7658 71.1474 96.739 68.6154 101.209 67.0961C99.2223 69.6282 97.2356 73.1731 96.2423 76.7179ZM96.2423 122.295C97.2356 125.84 98.7256 128.878 100.712 131.917C96.739 130.397 92.7658 127.865 89.7858 124.827C91.7724 123.814 93.7591 122.801 96.2423 122.295ZM130.512 122.295C132.995 122.801 135.478 123.814 136.968 124.827C133.988 127.865 130.015 130.397 126.042 131.917C128.028 128.878 129.518 125.333 130.512 122.295ZM133.988 95.4551C133.988 92.4167 133.491 87.859 132.498 83.3013C135.975 82.2885 139.451 81.2756 141.935 79.25C144.914 83.8077 147.398 89.3782 147.894 95.4551H133.988Z" fill="url(#paint1_linear_6_123)"/>
<defs>
<linearGradient id="paint0_linear_6_123" x1="113.5" y1="236.4" x2="113.5" y2="187.4" gradientUnits="userSpaceOnUse">
<stop stop-color="#00C2FF"/>
<stop offset="0.979167" stop-color="#F8FDFF" stop-opacity="0"/>
</linearGradient>
<linearGradient id="paint1_linear_6_123" x1="113" y1="20" x2="113" y2="178" gradientUnits="userSpaceOnUse">
<stop stop-color="#1296DB"/>
<stop offset="1" stop-color="#1296DB" stop-opacity="0"/>
</linearGradient>
</defs>
</svg>
