<svg width="227" height="385" viewBox="0 0 227 385" fill="none" xmlns="http://www.w3.org/2000/svg">
<path d="M1 247L113 293L226 247V293L113 339L1 293V247Z" fill="#E8D316" fill-opacity="0.54"/>
<path d="M1 293L113 339L226 293V339L113 384L1 339V293Z" fill="#FFF511" fill-opacity="0.31"/>
<path d="M113 198L227 246.45L113 293L0 246.45L113 198Z" fill="#FFF511" fill-opacity="0.31"/>
<path d="M113.097 208L205 246.76L113.097 284L22 246.76L113.097 208Z" fill="#D1D510"/>
<path d="M113.5 236.4L72.3638 199.65H154.636L113.5 236.4Z" fill="url(#paint0_linear_6_130)"/>
<path d="M78.3695 52.9167C86.3159 52.9167 92.7724 47.3462 94.2624 39.75H124.062C126.048 39.75 127.538 38.2308 127.538 36.2051C127.538 34.1795 126.048 33.1667 124.062 33.1667H93.7658C92.2758 25.5705 85.8193 20 77.8728 20C68.933 20 61.4832 27.5962 61.4832 36.7115C61.4832 45.8269 69.4297 52.9167 78.3695 52.9167ZM78.3695 27.0897C83.336 27.0897 87.8059 31.141 87.8059 36.7115C87.8059 42.282 83.8327 46.3333 78.3695 46.3333C72.9063 46.3333 68.933 41.7756 68.933 36.7115C68.933 31.6474 72.9063 27.0897 78.3695 27.0897ZM145.914 52.4103C147.404 52.9167 148.398 52.9167 149.888 52.9167C151.378 52.9167 153.364 52.4103 154.854 51.9038L170.251 78.2372C170.747 79.25 172.237 79.7564 173.23 79.7564C173.727 79.7564 174.224 79.7564 175.217 79.25C176.707 78.2372 177.204 76.2115 176.21 74.1859L160.814 47.8526C163.297 45.8269 164.787 42.7885 165.284 39.75C166.774 36.2051 166.277 32.1538 163.794 28.1026C161.311 24.0513 158.331 21.5192 153.861 20.5064C149.888 19.4936 145.418 20 141.445 22.0256C137.471 24.0513 134.988 27.5962 133.995 32.1538C133.001 36.2051 133.498 40.7628 135.485 44.8141C137.471 48.8654 141.941 51.3974 145.914 52.4103ZM140.948 34.1795C141.445 31.6474 142.935 29.6218 145.418 28.609C146.908 27.5962 148.398 27.0897 149.888 27.0897C150.881 27.0897 151.378 27.0897 152.371 27.5962C154.854 28.1026 156.841 29.6218 157.834 32.1538C159.324 34.1795 159.324 36.7115 158.827 39.2436C158.331 41.7756 156.841 43.8013 154.358 44.8141C152.371 46.3333 149.888 46.3333 147.404 45.8269C144.921 45.3205 142.935 43.8013 141.941 41.2692C140.948 38.7372 140.451 36.7115 140.948 34.1795ZM194.09 84.8205C186.64 80.2628 176.707 82.7949 171.741 90.8974C169.754 94.9487 168.761 99 170.251 103.558C171.244 106.596 172.734 109.128 174.72 111.66L159.324 137.994C158.331 139.513 158.828 142.045 160.317 143.058C160.814 143.564 161.311 143.564 162.304 143.564C163.297 143.564 164.787 143.058 165.284 142.045L180.68 115.712C182.17 116.218 184.157 116.724 185.647 116.724C191.11 116.724 196.573 113.686 199.553 108.622C204.52 99.5064 201.54 89.3782 194.09 84.8205ZM193.593 104.064C191.11 108.622 185.15 110.141 181.177 107.609C176.707 105.077 175.217 99 177.7 94.9487C180.184 90.391 186.143 88.8718 190.117 91.4038C195.083 93.9359 196.573 99.5064 193.593 104.064ZM149.888 145.083C141.941 145.083 135.485 150.654 133.995 158.25H104.195C102.209 158.25 100.719 159.769 100.719 161.795C100.719 163.82 102.209 164.833 104.195 164.833H134.491C135.981 172.429 142.438 178 150.384 178C159.324 178 166.774 170.404 166.774 161.288C166.774 152.173 158.828 145.083 149.888 145.083ZM149.888 170.91C144.921 170.91 140.451 166.859 140.451 161.288C140.451 156.224 144.425 151.667 149.888 151.667C155.351 151.667 159.324 155.718 159.324 161.288C159.324 166.353 155.351 170.91 149.888 170.91ZM73.4029 145.59L58.0066 119.256C57.0133 117.737 55.0267 117.231 53.0401 118.244C51.5501 119.256 51.0535 121.282 52.0468 123.308L67.4431 149.641C61.9799 154.705 60.4899 163.314 64.4631 169.897C67.4431 174.962 72.9063 178 78.3695 178C81.3494 178 83.8327 177.494 86.3159 175.974C93.7658 171.417 96.7457 161.288 92.2758 153.186C88.3026 146.096 80.3561 143.564 73.4029 145.59ZM82.8394 169.391C78.3695 171.923 72.9063 170.404 70.423 165.846C67.9397 161.288 69.4297 155.718 73.8996 153.186C78.3695 150.654 83.8327 152.173 86.3159 156.731C88.7992 161.288 87.3092 166.859 82.8394 169.391ZM56.5167 107.103C58.5033 103.558 59.4966 99 58.0066 94.4423C57.0133 91.4038 55.5234 88.8718 53.5367 86.3397L68.933 60.0064C69.9263 58.4872 69.4297 55.9551 67.4431 54.9423C65.9531 53.9295 63.4698 54.4359 62.4765 56.4615L47.0802 82.7949C44.1003 81.782 41.1204 81.782 38.1404 82.2885C34.1672 83.3013 30.6906 86.3397 28.2074 89.8846C26.2207 93.9359 25.2274 97.9872 26.7174 102.545C27.7107 106.596 30.6906 110.141 34.1672 112.673C36.6505 114.192 39.6304 114.699 42.1137 114.699C43.6036 114.699 45.0936 114.699 46.0869 114.192C50.5568 113.686 54.0334 111.154 56.5167 107.103ZM50.5568 103.558C49.5635 105.583 47.0802 107.103 45.0936 108.115C42.6103 108.622 40.1271 108.622 38.1404 107.103C33.1739 104.064 31.6839 98.4936 34.6639 93.9359C35.6572 91.9103 38.1404 90.391 40.1271 89.3782C41.1204 89.3782 41.617 88.8718 42.6103 88.8718C44.1003 88.8718 45.5903 89.3782 47.0802 90.391C49.0668 91.4038 50.5568 93.9359 51.5501 95.9615C52.0468 99 51.5501 101.532 50.5568 103.558ZM114.625 56.9679C114.129 56.9679 114.129 56.9679 114.625 56.9679C91.7791 56.9679 73.4029 75.7051 73.4029 99C73.4029 122.295 91.7791 141.032 114.625 141.032C137.471 141.032 155.848 122.295 155.848 99C155.848 76.2115 137.471 57.4744 114.625 56.9679ZM142.438 119.256C139.955 117.737 136.478 116.218 133.498 115.205C134.491 110.647 134.988 106.09 134.988 102.545H148.398C147.901 108.622 145.914 114.192 142.438 119.256ZM80.3561 102.545H93.7658C93.7658 106.09 94.2624 110.141 95.2557 115.205C91.7791 116.218 88.7992 117.231 86.3159 119.256C83.336 114.192 80.8527 108.622 80.3561 102.545ZM86.3159 79.25C88.7992 80.7692 92.2758 82.2885 95.7524 83.3013C94.7591 87.859 94.2624 92.4167 94.2624 95.4551H80.8527C80.8527 89.8846 82.8394 84.3141 86.3159 79.25ZM111.149 78.7436C109.162 78.7436 106.679 78.2372 104.195 78.2372C105.685 74.1859 107.672 70.1346 111.149 67.0961V78.7436ZM111.149 85.8333V95.9615H101.216C101.216 92.9231 101.712 89.3782 102.706 85.3269C105.189 85.3269 108.169 85.3269 111.149 85.8333ZM101.216 102.545H111.149V112.673C108.665 112.673 105.685 113.179 102.706 113.686C101.712 109.635 101.216 105.583 101.216 102.545ZM111.149 120.269V131.41C108.169 128.878 106.182 124.827 104.692 120.776C106.679 120.269 108.665 120.269 111.149 120.269ZM118.102 120.269C120.088 120.269 122.572 120.776 124.558 120.776C123.068 124.827 121.082 128.878 118.102 131.41V120.269ZM118.102 113.179V102.545H128.035C128.035 105.583 127.538 109.635 126.545 113.686C123.068 113.686 120.088 113.179 118.102 113.179ZM128.035 95.4551H118.102V85.3269C120.585 85.3269 123.565 84.8205 126.545 84.3141C127.538 88.8718 127.538 92.9231 128.035 95.4551ZM118.102 78.2372V66.5897C121.082 69.1218 123.565 73.1731 125.055 77.2244C122.572 78.2372 120.088 78.2372 118.102 78.2372ZM127.042 66.5897C131.015 68.109 134.988 70.641 138.465 73.6795C136.975 74.6923 134.491 75.7051 132.008 76.2115C130.518 73.1731 129.028 69.6282 127.042 66.5897ZM97.2423 76.7179C94.7591 76.2115 92.2758 75.1987 90.7858 74.1859C93.7658 71.1474 97.739 68.6154 102.209 67.0961C100.222 69.6282 98.2356 73.1731 97.2423 76.7179ZM97.2423 122.295C98.2356 125.84 99.7256 128.878 101.712 131.917C97.739 130.397 93.7658 127.865 90.7858 124.827C92.7724 123.814 94.7591 122.801 97.2423 122.295ZM131.512 122.295C133.995 122.801 136.478 123.814 137.968 124.827C134.988 127.865 131.015 130.397 127.042 131.917C129.028 128.878 130.518 125.333 131.512 122.295ZM134.988 95.4551C134.988 92.4167 134.491 87.859 133.498 83.3013C136.975 82.2885 140.451 81.2756 142.935 79.25C145.914 83.8077 148.398 89.3782 148.894 95.4551H134.988Z" fill="url(#paint1_linear_6_130)"/>
<path d="M0 0H227V339L114 385L0 339V0Z" fill="url(#paint2_linear_6_130)"/>
<defs>
<linearGradient id="paint0_linear_6_130" x1="113.5" y1="236.4" x2="113.5" y2="187.4" gradientUnits="userSpaceOnUse">
<stop stop-color="#F2DC12"/>
<stop offset="0.979167" stop-color="#F8FDFF" stop-opacity="0"/>
</linearGradient>
<linearGradient id="paint1_linear_6_130" x1="114" y1="20" x2="114" y2="178" gradientUnits="userSpaceOnUse">
<stop stop-color="#FFE600"/>
<stop offset="1" stop-color="#FFE600" stop-opacity="0"/>
</linearGradient>
<linearGradient id="paint2_linear_6_130" x1="113.5" y1="0" x2="113.5" y2="385" gradientUnits="userSpaceOnUse">
<stop stop-color="white" stop-opacity="0"/>
<stop offset="0.864583" stop-color="#FFF511" stop-opacity="0.31"/>
</linearGradient>
</defs>
</svg>
