<svg width="228" height="385" viewBox="0 0 228 385" fill="none" xmlns="http://www.w3.org/2000/svg">
<path d="M1 248L113 294L226 248V294L113 340L1 294V248Z" fill="#E8D316" fill-opacity="0.54"/>
<path d="M1 294L113 340L226 294V340L113 385L1 340V294Z" fill="#A2A5BD" fill-opacity="0.81"/>
<path d="M113 199L227 247.45L113 294L0 247.45L113 199Z" fill="#FFF511" fill-opacity="0.31"/>
<path d="M113.097 209L205 247.76L113.097 285L22 247.76L113.097 209Z" fill="#094092" fill-opacity="0.49"/>
<path d="M113.5 237.4L72.3638 200.65H154.636L113.5 237.4Z" fill="url(#paint0_linear_6_138)"/>
<path d="M78.3695 64.9167C86.3159 64.9167 92.7724 59.3462 94.2624 51.75H124.062C126.048 51.75 127.538 50.2308 127.538 48.2051C127.538 46.1795 126.048 45.1667 124.062 45.1667H93.7658C92.2758 37.5705 85.8193 32 77.8728 32C68.933 32 61.4832 39.5962 61.4832 48.7115C61.4832 57.8269 69.4297 64.9167 78.3695 64.9167ZM78.3695 39.0897C83.336 39.0897 87.8059 43.141 87.8059 48.7115C87.8059 54.282 83.8327 58.3333 78.3695 58.3333C72.9063 58.3333 68.933 53.7756 68.933 48.7115C68.933 43.6474 72.9063 39.0897 78.3695 39.0897ZM145.914 64.4103C147.404 64.9167 148.398 64.9167 149.888 64.9167C151.378 64.9167 153.364 64.4103 154.854 63.9038L170.251 90.2372C170.747 91.25 172.237 91.7564 173.23 91.7564C173.727 91.7564 174.224 91.7564 175.217 91.25C176.707 90.2372 177.204 88.2115 176.21 86.1859L160.814 59.8526C163.297 57.8269 164.787 54.7885 165.284 51.75C166.774 48.2051 166.277 44.1538 163.794 40.1026C161.311 36.0513 158.331 33.5192 153.861 32.5064C149.888 31.4936 145.418 32 141.445 34.0256C137.471 36.0513 134.988 39.5962 133.995 44.1538C133.001 48.2051 133.498 52.7628 135.485 56.8141C137.471 60.8654 141.941 63.3974 145.914 64.4103ZM140.948 46.1795C141.445 43.6474 142.935 41.6218 145.418 40.609C146.908 39.5962 148.398 39.0897 149.888 39.0897C150.881 39.0897 151.378 39.0897 152.371 39.5962C154.854 40.1026 156.841 41.6218 157.834 44.1538C159.324 46.1795 159.324 48.7115 158.827 51.2436C158.331 53.7756 156.841 55.8013 154.358 56.8141C152.371 58.3333 149.888 58.3333 147.404 57.8269C144.921 57.3205 142.935 55.8013 141.941 53.2692C140.948 50.7372 140.451 48.7115 140.948 46.1795ZM194.09 96.8205C186.64 92.2628 176.707 94.7949 171.741 102.897C169.754 106.949 168.761 111 170.251 115.558C171.244 118.596 172.734 121.128 174.72 123.66L159.324 149.994C158.331 151.513 158.828 154.045 160.317 155.058C160.814 155.564 161.311 155.564 162.304 155.564C163.297 155.564 164.787 155.058 165.284 154.045L180.68 127.712C182.17 128.218 184.157 128.724 185.647 128.724C191.11 128.724 196.573 125.686 199.553 120.622C204.52 111.506 201.54 101.378 194.09 96.8205ZM193.593 116.064C191.11 120.622 185.15 122.141 181.177 119.609C176.707 117.077 175.217 111 177.7 106.949C180.184 102.391 186.143 100.872 190.117 103.404C195.083 105.936 196.573 111.506 193.593 116.064ZM149.888 157.083C141.941 157.083 135.485 162.654 133.995 170.25H104.195C102.209 170.25 100.719 171.769 100.719 173.795C100.719 175.82 102.209 176.833 104.195 176.833H134.491C135.981 184.429 142.438 190 150.384 190C159.324 190 166.774 182.404 166.774 173.288C166.774 164.173 158.828 157.083 149.888 157.083ZM149.888 182.91C144.921 182.91 140.451 178.859 140.451 173.288C140.451 168.224 144.425 163.667 149.888 163.667C155.351 163.667 159.324 167.718 159.324 173.288C159.324 178.353 155.351 182.91 149.888 182.91ZM73.4029 157.59L58.0066 131.256C57.0133 129.737 55.0267 129.231 53.0401 130.244C51.5501 131.256 51.0535 133.282 52.0468 135.308L67.4431 161.641C61.9799 166.705 60.4899 175.314 64.4631 181.897C67.4431 186.962 72.9063 190 78.3695 190C81.3494 190 83.8327 189.494 86.3159 187.974C93.7658 183.417 96.7457 173.288 92.2758 165.186C88.3026 158.096 80.3561 155.564 73.4029 157.59ZM82.8394 181.391C78.3695 183.923 72.9063 182.404 70.423 177.846C67.9397 173.288 69.4297 167.718 73.8996 165.186C78.3695 162.654 83.8327 164.173 86.3159 168.731C88.7992 173.288 87.3092 178.859 82.8394 181.391ZM56.5167 119.103C58.5033 115.558 59.4966 111 58.0066 106.442C57.0133 103.404 55.5234 100.872 53.5367 98.3397L68.933 72.0064C69.9263 70.4872 69.4297 67.9551 67.4431 66.9423C65.9531 65.9295 63.4698 66.4359 62.4765 68.4615L47.0802 94.7949C44.1003 93.782 41.1204 93.782 38.1404 94.2885C34.1672 95.3013 30.6906 98.3397 28.2074 101.885C26.2207 105.936 25.2274 109.987 26.7174 114.545C27.7107 118.596 30.6906 122.141 34.1672 124.673C36.6505 126.192 39.6304 126.699 42.1137 126.699C43.6036 126.699 45.0936 126.699 46.0869 126.192C50.5568 125.686 54.0334 123.154 56.5167 119.103ZM50.5568 115.558C49.5635 117.583 47.0802 119.103 45.0936 120.115C42.6103 120.622 40.1271 120.622 38.1404 119.103C33.1739 116.064 31.6839 110.494 34.6639 105.936C35.6572 103.91 38.1404 102.391 40.1271 101.378C41.1204 101.378 41.617 100.872 42.6103 100.872C44.1003 100.872 45.5903 101.378 47.0802 102.391C49.0668 103.404 50.5568 105.936 51.5501 107.962C52.0468 111 51.5501 113.532 50.5568 115.558ZM114.625 68.9679C114.129 68.9679 114.129 68.9679 114.625 68.9679C91.7791 68.9679 73.4029 87.7051 73.4029 111C73.4029 134.295 91.7791 153.032 114.625 153.032C137.471 153.032 155.848 134.295 155.848 111C155.848 88.2115 137.471 69.4744 114.625 68.9679ZM142.438 131.256C139.955 129.737 136.478 128.218 133.498 127.205C134.491 122.647 134.988 118.09 134.988 114.545H148.398C147.901 120.622 145.914 126.192 142.438 131.256ZM80.3561 114.545H93.7658C93.7658 118.09 94.2624 122.141 95.2557 127.205C91.7791 128.218 88.7992 129.231 86.3159 131.256C83.336 126.192 80.8527 120.622 80.3561 114.545ZM86.3159 91.25C88.7992 92.7692 92.2758 94.2885 95.7524 95.3013C94.7591 99.859 94.2624 104.417 94.2624 107.455H80.8527C80.8527 101.885 82.8394 96.3141 86.3159 91.25ZM111.149 90.7436C109.162 90.7436 106.679 90.2372 104.195 90.2372C105.685 86.1859 107.672 82.1346 111.149 79.0961V90.7436ZM111.149 97.8333V107.962H101.216C101.216 104.923 101.712 101.378 102.706 97.3269C105.189 97.3269 108.169 97.3269 111.149 97.8333ZM101.216 114.545H111.149V124.673C108.665 124.673 105.685 125.179 102.706 125.686C101.712 121.635 101.216 117.583 101.216 114.545ZM111.149 132.269V143.41C108.169 140.878 106.182 136.827 104.692 132.776C106.679 132.269 108.665 132.269 111.149 132.269ZM118.102 132.269C120.088 132.269 122.572 132.776 124.558 132.776C123.068 136.827 121.082 140.878 118.102 143.41V132.269ZM118.102 125.179V114.545H128.035C128.035 117.583 127.538 121.635 126.545 125.686C123.068 125.686 120.088 125.179 118.102 125.179ZM128.035 107.455H118.102V97.3269C120.585 97.3269 123.565 96.8205 126.545 96.3141C127.538 100.872 127.538 104.923 128.035 107.455ZM118.102 90.2372V78.5897C121.082 81.1218 123.565 85.1731 125.055 89.2244C122.572 90.2372 120.088 90.2372 118.102 90.2372ZM127.042 78.5897C131.015 80.109 134.988 82.641 138.465 85.6795C136.975 86.6923 134.491 87.7051 132.008 88.2115C130.518 85.1731 129.028 81.6282 127.042 78.5897ZM97.2423 88.7179C94.7591 88.2115 92.2758 87.1987 90.7858 86.1859C93.7658 83.1474 97.739 80.6154 102.209 79.0961C100.222 81.6282 98.2356 85.1731 97.2423 88.7179ZM97.2423 134.295C98.2356 137.84 99.7256 140.878 101.712 143.917C97.739 142.397 93.7658 139.865 90.7858 136.827C92.7724 135.814 94.7591 134.801 97.2423 134.295ZM131.512 134.295C133.995 134.801 136.478 135.814 137.968 136.827C134.988 139.865 131.015 142.397 127.042 143.917C129.028 140.878 130.518 137.333 131.512 134.295ZM134.988 107.455C134.988 104.417 134.491 99.859 133.498 95.3013C136.975 94.2885 140.451 93.2756 142.935 91.25C145.914 95.8077 148.398 101.378 148.894 107.455H134.988Z" fill="url(#paint1_linear_6_138)"/>
<path d="M1 0H228V339L115 385L1 339V0Z" fill="url(#paint2_linear_6_138)"/>
<defs>
<linearGradient id="paint0_linear_6_138" x1="113.5" y1="237.4" x2="113.5" y2="188.4" gradientUnits="userSpaceOnUse">
<stop stop-color="#F2DC12"/>
<stop offset="0.979167" stop-color="#F8FDFF" stop-opacity="0"/>
</linearGradient>
<linearGradient id="paint1_linear_6_138" x1="114" y1="32" x2="114" y2="190" gradientUnits="userSpaceOnUse">
<stop stop-color="#F2DC12"/>
<stop offset="1" stop-color="#F2DC12" stop-opacity="0"/>
</linearGradient>
<linearGradient id="paint2_linear_6_138" x1="114.5" y1="0" x2="114.5" y2="385" gradientUnits="userSpaceOnUse">
<stop stop-color="white" stop-opacity="0"/>
<stop offset="1" stop-color="#FFDF35" stop-opacity="0.65"/>
</linearGradient>
</defs>
</svg>
