<svg width="228" height="385" viewBox="0 0 228 385" fill="none" xmlns="http://www.w3.org/2000/svg">
<path d="M1 248L113 294L226 248V294L113 340L1 294V248Z" fill="#E8D316" fill-opacity="0.54"/>
<path d="M1 294L113 340L226 294V340L113 385L1 340V294Z" fill="#A2A5BD" fill-opacity="0.81"/>
<path d="M113 199L227 247.45L113 294L0 247.45L113 199Z" fill="#FFF511" fill-opacity="0.31"/>
<path d="M113.097 209L205 247.76L113.097 285L22 247.76L113.097 209Z" fill="#094092" fill-opacity="0.49"/>
<path d="M113.5 237.4L72.3638 200.65H154.636L113.5 237.4Z" fill="url(#paint0_linear_6_165)"/>
<path d="M161.318 173.717H40.1641C36.6584 173.717 33.8066 176.568 33.8066 180.074C33.8066 183.58 36.6584 186.431 40.1641 186.431H161.318C164.824 186.431 167.676 183.58 167.676 180.074C167.676 176.568 164.824 173.717 161.318 173.717ZM117.234 91.9602L152.781 61.2447C155.433 58.9561 155.724 54.9418 153.435 52.2717C151.146 49.6197 147.132 49.3291 144.462 51.6178L114.764 77.3018C113.801 78.1373 112.366 78.1373 111.404 77.3018L96.4727 64.4053C94.0932 62.3346 90.5512 62.3346 88.1535 64.4053L60.4533 88.3455C57.8014 90.6342 57.5107 94.6484 59.7994 97.3186C62.0881 99.9705 66.1023 100.261 68.7725 97.9725L90.642 79.0637C91.6047 78.2281 93.0396 78.2281 94.0023 79.0637L108.933 91.9602C111.313 94.0309 114.855 94.0309 117.234 91.9602Z" fill="url(#paint1_linear_6_165)"/>
<path d="M193.323 169.048L178.156 153.881C183.551 147.088 186.457 138.714 186.457 129.923C186.457 129.287 186.439 128.67 186.403 128.034H186.53V38.6123C186.53 32.0006 181.154 26.624 174.542 26.624H46.6123C40.0006 26.624 34.624 32.0006 34.624 38.6123V138.242C34.624 144.854 40.0006 150.23 46.6123 150.23H114.837C121.666 161.274 133.872 168.649 147.786 168.649C155.342 168.649 162.572 166.487 168.766 162.491L184.35 178.076C186.839 180.564 190.853 180.564 193.342 178.076C195.812 175.569 195.812 171.537 193.323 169.048ZM47.3389 137.497V39.3389H173.852V101.351C166.967 95.0662 157.813 91.2154 147.768 91.2154C126.425 91.2154 109.06 108.58 109.06 129.923C109.06 132.521 109.315 135.045 109.805 137.497H47.3389ZM147.768 155.916C133.437 155.916 121.775 144.254 121.775 129.923C121.775 115.592 133.437 103.93 147.768 103.93C162.099 103.93 173.761 115.592 173.761 129.923C173.761 144.254 162.099 155.916 147.768 155.916Z" fill="url(#paint2_linear_6_165)"/>
<path d="M1 0H228V339L115 385L1 339V0Z" fill="url(#paint3_linear_6_165)"/>
<defs>
<linearGradient id="paint0_linear_6_165" x1="113.5" y1="237.4" x2="113.5" y2="188.4" gradientUnits="userSpaceOnUse">
<stop stop-color="#F2DC12"/>
<stop offset="0.979167" stop-color="#F8FDFF" stop-opacity="0"/>
</linearGradient>
<linearGradient id="paint1_linear_6_165" x1="100.741" y1="50.0751" x2="100.741" y2="186.431" gradientUnits="userSpaceOnUse">
<stop stop-color="#FFDF35"/>
<stop offset="1" stop-color="#FFDF35" stop-opacity="0"/>
</linearGradient>
<linearGradient id="paint2_linear_6_165" x1="114.908" y1="26.624" x2="114.908" y2="179.942" gradientUnits="userSpaceOnUse">
<stop stop-color="#FFDF35"/>
<stop offset="1" stop-color="#FFDF35" stop-opacity="0"/>
</linearGradient>
<linearGradient id="paint3_linear_6_165" x1="114.5" y1="0" x2="114.5" y2="385" gradientUnits="userSpaceOnUse">
<stop stop-color="white" stop-opacity="0"/>
<stop offset="1" stop-color="#FFDF35" stop-opacity="0.65"/>
</linearGradient>
</defs>
</svg>
