<svg width="227" height="384" viewBox="0 0 227 384" fill="none" xmlns="http://www.w3.org/2000/svg">
<path d="M1 247L113 293L226 247V293L113 339L1 293V247Z" fill="#1091D5"/>
<path d="M1 293L113 339L226 293V339L113 384L1 339V293Z" fill="#11ADFF" fill-opacity="0.54"/>
<path d="M113 198L227 246.45L113 293L0 246.45L113 198Z" fill="#11ADFF" fill-opacity="0.31"/>
<path d="M113.097 208L205 246.76L113.097 284L22 246.76L113.097 208Z" fill="#1091D5"/>
<path d="M113.5 236.4L72.3638 199.65H154.636L113.5 236.4Z" fill="url(#paint0_linear_6_146)"/>
<path d="M159.318 172.717H38.1641C34.6584 172.717 31.8066 175.568 31.8066 179.074C31.8066 182.58 34.6584 185.431 38.1641 185.431H159.318C162.824 185.431 165.676 182.58 165.676 179.074C165.676 175.568 162.824 172.717 159.318 172.717ZM115.234 90.9602L150.781 60.2447C153.433 57.9561 153.724 53.9418 151.435 51.2717C149.146 48.6197 145.132 48.3291 142.462 50.6178L112.764 76.3018C111.801 77.1373 110.366 77.1373 109.404 76.3018L94.4727 63.4053C92.0932 61.3346 88.5512 61.3346 86.1535 63.4053L58.4533 87.3455C55.8014 89.6342 55.5107 93.6484 57.7994 96.3186C60.0881 98.9705 64.1023 99.2611 66.7725 96.9725L88.642 78.0637C89.6047 77.2281 91.0396 77.2281 92.0023 78.0637L106.933 90.9602C109.313 93.0309 112.855 93.0309 115.234 90.9602Z" fill="url(#paint1_linear_6_146)"/>
<path d="M191.323 168.048L176.156 152.881C181.551 146.088 184.457 137.714 184.457 128.923C184.457 128.287 184.439 127.67 184.403 127.034H184.53V37.6123C184.53 31.0006 179.154 25.624 172.542 25.624H44.6123C38.0006 25.624 32.624 31.0006 32.624 37.6123V137.242C32.624 143.854 38.0006 149.23 44.6123 149.23H112.837C119.666 160.274 131.872 167.649 145.786 167.649C153.342 167.649 160.572 165.487 166.766 161.491L182.35 177.076C184.839 179.564 188.853 179.564 191.342 177.076C193.812 174.569 193.812 170.537 191.323 168.048ZM45.3389 136.497V38.3389H171.852V100.351C164.967 94.0662 155.813 90.2154 145.768 90.2154C124.425 90.2154 107.06 107.58 107.06 128.923C107.06 131.521 107.315 134.045 107.805 136.497H45.3389ZM145.768 154.916C131.437 154.916 119.775 143.254 119.775 128.923C119.775 114.592 131.437 102.93 145.768 102.93C160.099 102.93 171.761 114.592 171.761 128.923C171.761 143.254 160.099 154.916 145.768 154.916Z" fill="url(#paint2_linear_6_146)"/>
<defs>
<linearGradient id="paint0_linear_6_146" x1="113.5" y1="236.4" x2="113.5" y2="187.4" gradientUnits="userSpaceOnUse">
<stop stop-color="#00C2FF"/>
<stop offset="0.979167" stop-color="#F8FDFF" stop-opacity="0"/>
</linearGradient>
<linearGradient id="paint1_linear_6_146" x1="98.7412" y1="49.0751" x2="98.7412" y2="185.431" gradientUnits="userSpaceOnUse">
<stop stop-color="#1296DB"/>
<stop offset="1" stop-color="#1296DB" stop-opacity="0"/>
</linearGradient>
<linearGradient id="paint2_linear_6_146" x1="112.908" y1="25.624" x2="112.908" y2="178.942" gradientUnits="userSpaceOnUse">
<stop stop-color="#1296DB"/>
<stop offset="1" stop-color="#1296DB" stop-opacity="0"/>
</linearGradient>
</defs>
</svg>
