<svg width="227" height="385" viewBox="0 0 227 385" fill="none" xmlns="http://www.w3.org/2000/svg">
<path d="M1 247L113 293L226 247V293L113 339L1 293V247Z" fill="#E8D316" fill-opacity="0.54"/>
<path d="M1 293L113 339L226 293V339L113 384L1 339V293Z" fill="#FFF511" fill-opacity="0.31"/>
<path d="M113 198L227 246.45L113 293L0 246.45L113 198Z" fill="#FFF511" fill-opacity="0.31"/>
<path d="M113.097 208L205 246.76L113.097 284L22 246.76L113.097 208Z" fill="#D1D510"/>
<path d="M113.5 236.4L72.3638 199.65H154.636L113.5 236.4Z" fill="url(#paint0_linear_6_155)"/>
<path d="M160.318 172.717H39.1641C35.6584 172.717 32.8066 175.568 32.8066 179.074C32.8066 182.58 35.6584 185.431 39.1641 185.431H160.318C163.824 185.431 166.676 182.58 166.676 179.074C166.676 175.568 163.824 172.717 160.318 172.717ZM116.234 90.9602L151.781 60.2447C154.433 57.9561 154.724 53.9418 152.435 51.2717C150.146 48.6197 146.132 48.3291 143.462 50.6178L113.764 76.3018C112.801 77.1373 111.366 77.1373 110.404 76.3018L95.4727 63.4053C93.0932 61.3346 89.5512 61.3346 87.1535 63.4053L59.4533 87.3455C56.8014 89.6342 56.5107 93.6484 58.7994 96.3186C61.0881 98.9705 65.1023 99.2611 67.7725 96.9725L89.642 78.0637C90.6047 77.2281 92.0396 77.2281 93.0023 78.0637L107.933 90.9602C110.313 93.0309 113.855 93.0309 116.234 90.9602Z" fill="url(#paint1_linear_6_155)"/>
<path d="M192.323 168.048L177.156 152.881C182.551 146.088 185.457 137.714 185.457 128.923C185.457 128.287 185.439 127.67 185.403 127.034H185.53V37.6123C185.53 31.0006 180.154 25.624 173.542 25.624H45.6123C39.0006 25.624 33.624 31.0006 33.624 37.6123V137.242C33.624 143.854 39.0006 149.23 45.6123 149.23H113.837C120.666 160.274 132.872 167.649 146.786 167.649C154.342 167.649 161.572 165.487 167.766 161.491L183.35 177.076C185.839 179.564 189.853 179.564 192.342 177.076C194.812 174.569 194.812 170.537 192.323 168.048ZM46.3389 136.497V38.3389H172.852V100.351C165.967 94.0662 156.813 90.2154 146.768 90.2154C125.425 90.2154 108.06 107.58 108.06 128.923C108.06 131.521 108.315 134.045 108.805 136.497H46.3389ZM146.768 154.916C132.437 154.916 120.775 143.254 120.775 128.923C120.775 114.592 132.437 102.93 146.768 102.93C161.099 102.93 172.761 114.592 172.761 128.923C172.761 143.254 161.099 154.916 146.768 154.916Z" fill="url(#paint2_linear_6_155)"/>
<path d="M0 0H227V339L114 385L0 339V0Z" fill="url(#paint3_linear_6_155)"/>
<defs>
<linearGradient id="paint0_linear_6_155" x1="113.5" y1="236.4" x2="113.5" y2="187.4" gradientUnits="userSpaceOnUse">
<stop stop-color="#F2DC12"/>
<stop offset="0.979167" stop-color="#F8FDFF" stop-opacity="0"/>
</linearGradient>
<linearGradient id="paint1_linear_6_155" x1="99.7412" y1="49.0751" x2="99.7412" y2="185.431" gradientUnits="userSpaceOnUse">
<stop stop-color="#FFE600"/>
<stop offset="1" stop-color="#FFE600" stop-opacity="0"/>
</linearGradient>
<linearGradient id="paint2_linear_6_155" x1="113.908" y1="25.624" x2="113.908" y2="178.942" gradientUnits="userSpaceOnUse">
<stop stop-color="#FFE600"/>
<stop offset="1" stop-color="#FFE600" stop-opacity="0"/>
</linearGradient>
<linearGradient id="paint3_linear_6_155" x1="113.5" y1="0" x2="113.5" y2="385" gradientUnits="userSpaceOnUse">
<stop stop-color="white" stop-opacity="0"/>
<stop offset="0.864583" stop-color="#FFF511" stop-opacity="0.31"/>
</linearGradient>
</defs>
</svg>
