<?xml version="1.0"?>
<svg width="1024" height="1024" xmlns="http://www.w3.org/2000/svg" xmlns:svg="http://www.w3.org/2000/svg" class="icon" version="1.1">
 <defs>
  <style type="text/css"/>
 </defs>
 <g class="layer">
  <title>Layer 1</title>
  <path d="m520.78,49.72a443.08,443.08 0 0 1 443.08,443.13l0,40.24a443.08,443.08 0 1 1 -886.17,0l0,-40.24a443.08,443.08 0 0 1 443.04,-443.19l0.05,0.06z" fill="#000D29" id="svg_1"/>
  <path d="m819.01,428.22l-272.71,-272.72c-7.9,-7.9 -20.7,-7.9 -28.59,0l-92.52,92.52l0,-16.25c0,-11.17 -9.05,-20.21 -20.22,-20.21l-60.81,0c-11.17,0 -20.21,9.04 -20.21,20.21l0,117.48l-78.96,78.96c-7.9,7.89 -7.9,20.69 0,28.59c7.9,7.9 20.7,7.9 28.59,0l258.42,-258.42l258.42,258.42c3.94,3.94 9.12,5.92 14.29,5.92s10.35,-1.98 14.3,-5.92c7.9,-7.9 7.9,-20.7 0,-28.59l0,0.01zm-454.63,-176.23l20.37,0l0,36.46l-20.37,20.38l0,-56.84zm181.92,3.28c-7.9,-7.9 -20.7,-7.9 -28.59,0l-224.85,224.85c-3.79,3.79 -5.92,8.93 -5.92,14.29l0,257.36c0,11.17 9.05,20.22 20.22,20.22l164.79,0c11.17,0 20.22,-9.05 20.22,-20.22l0,-125.39l79.69,0l0,125.39c0,11.17 9.05,20.22 20.22,20.22l164.79,0c11.17,0 20.22,-9.05 20.22,-20.22l0,-257.36c0,-5.36 -2.13,-10.5 -5.92,-14.29l-224.85,-224.85l-0.02,0zm190.34,476.29l-124.36,0l0,-125.4c0,-11.16 -9.05,-20.21 -20.22,-20.21l-120.12,0c-11.17,0 -20.21,9.05 -20.21,20.21l0,125.4l-124.37,0l0,-228.77l204.64,-204.64l204.64,204.64l0,228.77z" fill="#FFBB00" id="svg_4" xmlns="http://www.w3.org/2000/svg"/>
  <path d="m475.78,53.86a23.14,23.14 0 1 1 58,18.71l-58,-18.71zm237.33,12.67a23.14,23.14 0 1 1 -19.04,42.19a416.77,416.77 0 0 0 -47.26,-17.92a23.14,23.14 0 0 1 13.77,-44.24c17.92,5.64 35.43,12.29 52.53,19.97zm120.32,78.54a23.14,23.14 0 0 1 -30.92,34.41a421.99,421.99 0 0 0 -39.58,-31.49a23.14,23.14 0 0 1 26.63,-37.89c15.36,10.76 30,22.43 43.92,34.97l-0.05,0zm88.48,107.27a23.14,23.14 0 1 1 -39.73,23.81a420.86,420.86 0 0 0 -28.57,-41.73a23.14,23.14 0 0 1 36.6,-28.42c11.47,14.85 22.02,30.26 31.7,46.34zm54.27,134.5a23.14,23.14 0 0 1 -45.16,10.39a416.51,416.51 0 0 0 -14.34,-48.48a23.14,23.14 0 1 1 43.58,-15.77c6.4,17.56 11.72,35.58 15.87,53.86l0.05,0zm11.88,133.79a23.14,23.14 0 1 1 -46.34,0l0,-29.24c0,-7.78 -0.2,-15.56 -0.66,-23.3a23.14,23.14 0 0 1 46.23,-2.56c0.51,8.55 0.77,17.16 0.77,25.86l0,29.24zm-17.46,138.29a23.14,23.14 0 1 1 -44.6,-12.6c4.61,-16.18 8.2,-32.66 10.76,-49.41a23.14,23.14 0 0 1 45.77,7.12c-2.87,18.59 -6.86,36.86 -11.93,54.89zm-58.88,128.87a23.14,23.14 0 1 1 -38.71,-25.4c9.27,-14.13 17.67,-28.77 25.19,-43.88a23.14,23.14 0 0 1 41.47,20.59a465.72,465.72 0 0 1 -27.95,48.69zm-93.49,104.24a23.14,23.14 0 0 1 -29.49,-35.74c13.05,-10.75 25.39,-22.27 37.06,-34.45a23.14,23.14 0 1 1 33.49,31.94c-12.9,13.57 -26.62,26.32 -41.06,38.25zm-123.55,73.22a23.14,23.14 0 0 1 -17.2,-43.01c15.67,-6.25 30.92,-13.47 45.72,-21.51a23.14,23.14 0 0 1 22.27,40.61c-16.43,8.96 -33.38,16.99 -50.79,23.91zm-133.43,31.48a23.14,23.14 0 0 1 -3.89,-46.18c16.9,-1.38 33.59,-3.84 50.08,-7.22a23.14,23.14 0 0 1 9.37,45.37c-18.28,3.78 -36.87,6.45 -55.56,8.03zm-141.1,-9.47a23.14,23.14 0 1 1 10.03,-45.21c16.39,3.64 33.08,6.3 49.92,7.94a23.14,23.14 0 0 1 -4.5,46.08a465.25,465.25 0 0 1 -55.45,-8.81zm-131.48,-51.3a23.14,23.14 0 1 1 23.19,-40.14c14.59,8.45 29.7,16.02 45.21,22.63a23.14,23.14 0 0 1 -18.18,42.65a464.64,464.64 0 0 1 -50.22,-25.14zm-109.57,-87.71a23.14,23.14 0 0 1 34.05,-31.38c11.46,12.39 23.65,24.06 36.5,35.02a23.14,23.14 0 1 1 -30.05,35.33a468.99,468.99 0 0 1 -40.45,-38.91l-0.05,-0.06zm-79.87,-118.78a23.14,23.14 0 0 1 41.98,-19.61c7.17,15.26 15.26,30.11 24.17,44.39a23.14,23.14 0 1 1 -39.27,24.58a465.25,465.25 0 0 1 -26.83,-49.36l-0.05,0zm-39.12,-131.89a23.14,23.14 0 1 1 45.87,-6.45c2.36,16.74 5.69,33.28 10.04,49.51a23.14,23.14 0 0 1 -44.75,11.98a463.97,463.97 0 0 1 -11.16,-55.04zm-3.33,-139.98a23.14,23.14 0 0 1 46.18,3.38c-0.71,10.24 -1.12,20.48 -1.12,30.82l0,20.84a23.14,23.14 0 1 1 -46.29,0l0,-20.84c0,-11.47 0.41,-22.84 1.23,-34.2zm31.03,-136.71a23.14,23.14 0 1 1 43.11,17c-6.15,15.67 -11.37,31.75 -15.62,48.13a23.14,23.14 0 0 1 -44.85,-11.67a462.85,462.85 0 0 1 17.41,-53.4l-0.05,-0.06zm72.29,-123.39a23.14,23.14 0 1 1 35.89,29.29c-10.65,13.05 -20.48,26.78 -29.54,41.06a23.14,23.14 0 1 1 -39.12,-24.73c9.99,-15.87 20.95,-31.08 32.77,-45.57l0,-0.05zm103.22,-93.8a23.14,23.14 0 1 1 25.7,38.51a421.68,421.68 0 0 0 -40.34,30.56a23.14,23.14 0 1 1 -30.11,-35.17c14.19,-12.19 29.19,-23.55 44.75,-33.9zm131.23,-60.51a23.14,23.14 0 0 1 14.59,44.54c-16.23,4.61 -34.2,10.19 -49.72,16.69a23.14,23.14 0 1 1 -17.92,-42.7a462.9,462.9 0 0 1 53.05,-18.53zm177.36,-13.62a23.14,23.14 0 0 1 -2.9,45.34a424.96,424.96 0 0 0 -91.01,-0.75a23.14,23.14 0 0 1 -4.81,-46.08c15.82,-1.64 82.74,1.54 98.72,1.49z" fill="#FFBB00" id="svg_2"/>
  <path fill="#FFBB00" id="svg_3" transform="matrix(1 0 0 1 0 0)"/>
 </g>
</svg>